<svg width="3599" height="900" viewBox="0 0 3599 900" fill="none" xmlns="http://www.w3.org/2000/svg">
<path d="M150 750H750C832.843 750 900 817.157 900 900H0V0H150V750Z" fill="#EDE7D6"/>
<path d="M750 300C832.843 300 900 367.157 900 450V600H450C367.157 600 300 532.843 300 450V300H750Z" fill="#EDE7D6"/>
<path d="M1200 900H1050V150H600C517.157 150 450 82.8427 450 0H1200V900Z" fill="#EDE7D6"/>
<rect x="225" width="150" height="150" rx="75" fill="#CCE85B"/>
<path d="M3349 425H3549V475H3349V425Z" fill="#EDE7D6"/>
<path d="M3599 400C3599 427.614 3576.61 450 3549 450C3576.61 450 3599 472.386 3599 500V600C3571.39 600 3549 577.614 3549 550V350H3599V400Z" fill="#EDE7D6"/>
<path d="M3549 300C3576.61 300 3599 322.386 3599 350H3299V300H3549Z" fill="#EDE7D6"/>
<path d="M3349 550C3349 577.614 3326.61 600 3299 600V350H3349V550Z" fill="#EDE7D6"/>
<path d="M3199 300C3226.61 300 3249 322.386 3249 350V600C3221.39 600 3199 577.614 3199 550V350H2999V550C2999 577.614 2976.61 600 2949 600V350C2949 322.386 2971.39 300 2999 300H3199Z" fill="#EDE7D6"/>
<path d="M2900 475C2900 447.386 2922.39 425 2950 425H3200C3200 452.614 3177.61 475 3150 475H2900Z" fill="#EDE7D6"/>
<path d="M2800 300C2827.61 300 2850 322.386 2850 350V600C2822.39 600 2800 577.614 2800 550V350H2675V600C2647.39 600 2625 577.614 2625 550V350H2500V550C2500 577.614 2477.61 600 2450 600V350C2450 322.386 2472.39 300 2500 300H2800Z" fill="#EDE7D6"/>
<path d="M2150 300V600H2100V300H2150Z" fill="#EDE7D6"/>
<path d="M2100 350C2100 322.386 2122.39 300 2150 300H2400C2400 327.614 2377.61 350 2350 350H2100Z" fill="#EDE7D6"/>
<path d="M2100 475C2100 447.386 2122.39 425 2150 425H2400C2400 452.614 2377.61 475 2350 475H2100Z" fill="#EDE7D6"/>
<path d="M2100 600C2100 572.386 2122.39 550 2150 550H2400C2400 577.614 2377.61 600 2350 600H2100Z" fill="#EDE7D6"/>
<path d="M1800 550H2000C2027.61 550 2050 572.386 2050 600H1750V300H1800V550Z" fill="#EDE7D6"/>
<path d="M1650 300C1677.61 300 1700 322.386 1700 350V600C1672.39 600 1650 577.614 1650 550V300Z" fill="#EDE7D6"/>
<path d="M1350 550H1550C1577.61 550 1600 572.386 1600 600H1300V300H1350V550Z" fill="#EDE7D6"/>
</svg>
