<svg width="4500" height="3000" viewBox="0 0 4500 3000" fill="none" xmlns="http://www.w3.org/2000/svg">
<path d="M4500 3000H0V0H4500V3000ZM733 2637.5H3008.5C3008.5 2428.05 2838.7 2258.25 2629.25 2258.25H1112.25V362H733V2637.5ZM1870.75 362C1870.75 571.454 2040.55 741.25 2250 741.25H3387.75V2637.5H3767V362H1870.75ZM2157.63 1724H2194.47C2190.69 1727.07 2187.5 1730.57 2184.9 1734.49C2181.28 1739.96 2179.47 1745.87 2179.47 1752.23C2179.47 1754.9 2180.01 1757.54 2181.09 1760.15C2182.23 1762.75 2183.89 1765.17 2186.05 1767.39C2188.21 1769.62 2191.07 1771.4 2194.63 1772.74C2198.19 1774.13 2202.17 1774.83 2206.55 1774.83C2211.13 1774.83 2215.39 1773.69 2219.33 1771.4C2223.28 1769.11 2225.98 1767.11 2227.44 1765.39L2223.82 1750.9C2223.37 1751.4 2221.91 1751.85 2219.43 1752.23C2216.95 1752.61 2215.14 1752.8 2213.99 1752.8C2204.58 1752.8 2199.88 1748.92 2199.88 1741.17C2199.88 1738.37 2200.13 1735.83 2200.64 1733.54C2201.21 1731.31 2202.04 1729.34 2203.12 1727.62C2204.13 1726.09 2205.02 1724.88 2205.81 1724H2225.25V1700.16L2189.2 1701.11V1675.74L2214.95 1677.65V1655.33H2189.2V1633.78L2221.91 1634.73L2223.82 1612.22H2157.63V1724ZM1943.41 1724H1973.55L1983.37 1679.08L1995.11 1724H2027.63L2051.44 1615.81L2054.24 1621.19V1724H2084.57V1688.81L2078.95 1652.18L2092.97 1679.84L2115.66 1724H2144.75V1612.22H2114.33V1642.17L2119 1684.61L2102.22 1648.46L2084.67 1612.22H2023.24L2017.61 1650.75L2012.37 1688.14L2003.97 1650.75L1997.11 1612.22H1965.92L1973.26 1640.55L1970.79 1650.75L1961.15 1688.14L1953.62 1650.75L1948.56 1612.22H1916.8L1943.41 1724ZM2229.33 1637.5H2251.65V1724H2283.88V1637.5H2306.2V1612.22H2229.33V1637.5ZM2355.57 1611.36C2351.63 1611.36 2346.64 1611.52 2340.6 1611.84C2334.56 1612.1 2330.01 1612.22 2326.96 1612.22H2314.37V1724H2346.04V1686.8C2346.54 1686.8 2347.34 1686.84 2348.42 1686.9C2349.56 1686.96 2350.65 1687.03 2351.66 1687.09C2352.68 1687.15 2353.86 1687.22 2355.19 1687.28H2359.58C2360.79 1691.16 2361.71 1695.99 2362.34 1701.78C2363.04 1707.5 2363.58 1712.43 2363.97 1716.56C2364.35 1720.63 2364.89 1723.11 2365.59 1724H2400.78C2399.45 1722.28 2398.21 1719.71 2397.06 1716.27C2395.98 1712.84 2394.99 1709.38 2394.1 1705.88C2393.28 1702.32 2392.29 1698.82 2391.15 1695.39C2390 1691.89 2388.38 1688.87 2386.28 1686.33C2384.25 1683.78 2381.8 1682.16 2378.94 1681.46C2384.22 1678.09 2388.44 1673.55 2391.62 1667.83C2394.87 1662.1 2396.49 1655.55 2396.49 1648.18C2396.49 1635.72 2393.09 1626.47 2386.28 1620.42C2379.54 1614.38 2369.31 1611.36 2355.57 1611.36ZM2407.63 1636.54L2445.4 1634.44L2437.77 1643.41L2404.48 1704.26V1724H2481.83V1699.97L2438.15 1702.06L2444.73 1694.62L2480.68 1628.53V1612.22H2407.63V1636.54ZM2511.3 1619.95L2482.21 1724H2510.25L2513.87 1706.17H2540.96L2545.25 1724H2580.25L2548.4 1612.22H2509.01L2511.3 1619.95ZM2536.28 1686.71H2517.78L2526.17 1645.03L2536.28 1686.71ZM2347.85 1629.77C2353.25 1629.77 2357.38 1630.88 2360.25 1633.11C2363.17 1635.27 2364.63 1639.12 2364.63 1644.65V1652.18C2364.63 1654.73 2364.44 1656.95 2364.06 1658.86C2363.68 1660.77 2363.11 1662.33 2362.34 1663.53C2361.58 1664.74 2360.76 1665.73 2359.87 1666.49C2359.04 1667.25 2357.96 1667.83 2356.62 1668.21C2355.35 1668.52 2354.17 1668.75 2353.09 1668.87C2352.01 1669 2350.68 1669.07 2349.09 1669.07H2346.04V1629.77H2347.85ZM1313 1234V1478.54H1557.54C1557.54 1456.03 1539.29 1437.78 1516.78 1437.78H1353.76V1234H1313ZM1598.3 1437.78C1598.3 1460.29 1616.55 1478.54 1639.05 1478.54V1274.76C1639.05 1252.25 1620.81 1234 1598.3 1234V1437.78ZM1679.81 1478.54H1924.35C1924.35 1456.03 1906.11 1437.78 1883.6 1437.78H1720.57V1234H1679.81V1478.54ZM1965.11 1478.54H2168.89C2191.4 1478.54 2209.65 1460.29 2209.65 1437.78H2005.87V1376.65H2168.89C2191.4 1376.65 2209.65 1358.4 2209.65 1335.89H2005.87V1274.76H2168.89C2191.4 1274.76 2209.65 1256.51 2209.65 1234H1965.11V1478.54ZM2291.16 1234C2268.65 1234 2250.41 1252.25 2250.41 1274.76V1478.54C2272.92 1478.54 2291.16 1460.29 2291.16 1437.78V1274.76H2393.06V1437.78L2393.07 1438.84C2393.63 1460.86 2411.66 1478.54 2433.81 1478.54V1274.76H2535.71V1437.78C2535.71 1460.29 2553.95 1478.54 2576.46 1478.54V1274.76C2576.46 1252.25 2558.21 1234 2535.71 1234H2291.16ZM2697.92 1234C2675.41 1234 2657.16 1252.25 2657.16 1274.76V1335.9C2635.03 1336.34 2617.22 1354.41 2617.22 1376.65H2657.16V1478.54C2679.67 1478.54 2697.92 1460.29 2697.92 1437.78V1376.65H2821C2840.72 1376.65 2857.17 1362.64 2860.95 1344.04V1437.78C2860.95 1460.29 2879.19 1478.54 2901.7 1478.54V1274.76C2901.7 1252.25 2883.45 1234 2860.95 1234H2697.92ZM2942.46 1478.54C2964.97 1478.54 2983.22 1460.29 2983.22 1437.78V1376.65H3146.24V1437.78C3146.24 1460.29 3164.49 1478.54 3187 1478.54V1397.03C3187 1374.52 3168.75 1356.27 3146.24 1356.27C3168.75 1356.27 3187 1338.02 3187 1315.51V1274.76C3187 1252.25 3168.75 1234 3146.24 1234H2942.46V1478.54ZM2860.95 1335.89H2697.92V1274.76H2860.95V1335.89ZM3146.24 1335.89H2983.22V1274.76H3146.24V1335.89ZM1491.5 362C1386.77 362 1301.88 446.898 1301.88 551.625C1301.88 656.352 1386.77 741.25 1491.5 741.25C1596.23 741.25 1681.12 656.352 1681.12 551.625C1681.12 446.898 1596.23 362 1491.5 362Z" fill="#2E2E2E"/>
</svg>
